<?xml version="1.0" standalone="no"?>
<!DOCTYPE svg PUBLIC "-//W3C//DTD SVG 20010904//EN"
 "http://www.w3.org/TR/2001/REC-SVG-20010904/DTD/svg10.dtd">
<svg version="1.0" xmlns="http://www.w3.org/2000/svg"
 width="169.000000pt" height="169.000000pt" viewBox="0 0 169.000000 169.000000"
 preserveAspectRatio="xMidYMid meet">
<metadata>
Created by potrace 1.11, written by Peter Selinger 2001-2013
</metadata>
<g transform="translate(0.000000,169.000000) scale(0.100000,-0.100000)"
fill="#000000" stroke="none">
<path d="M337 1324 c-11 -11 -8 -41 6 -56 6 -7 13 -20 15 -28 2 -7 12 -26 23
-41 10 -15 19 -31 19 -36 0 -5 11 -24 25 -43 14 -19 25 -37 25 -40 0 -4 -15
-13 -32 -22 -48 -23 -74 -45 -147 -120 -79 -81 -85 -87 -101 -119 -7 -13 -16
-26 -19 -29 -28 -24 -88 -208 -93 -285 l-3 -60 783 -3 782 -2 0 52 c0 29 -7
78 -16 108 -8 30 -16 60 -17 66 -6 25 -79 162 -98 183 -11 11 -17 21 -13 21 4
0 -22 28 -58 63 -65 62 -118 104 -124 100 -2 -2 -13 6 -24 17 -12 12 -25 18
-30 15 -6 -4 -10 -3 -10 1 0 14 34 84 40 84 4 0 15 19 26 43 10 23 24 48 31
55 19 20 27 62 14 75 -20 20 -42 -4 -103 -114 -33 -59 -64 -103 -71 -101 -6 2
-19 5 -27 7 -8 2 -27 8 -42 14 -16 6 -28 9 -28 6 0 -2 -18 2 -39 10 -22 7 -42
11 -44 8 -3 -3 -11 -2 -18 3 -10 6 -254 10 -254 4 0 -2 -34 -9 -67 -14 -15 -3
-31 -7 -36 -10 -5 -3 -24 -8 -43 -11 -18 -3 -36 -9 -39 -13 -18 -24 -27 -13
-122 153 -32 56 -55 75 -71 59z m198 -497 c20 -29 19 -51 -6 -73 -31 -28 -62
-28 -89 1 -20 21 -22 30 -14 52 18 52 79 62 109 20z m714 -12 c12 -24 11 -30
-6 -53 -33 -45 -97 -33 -108 20 -16 71 81 100 114 33z"/>
</g>
</svg>
